<svg width="233" height="311" xmlns="http://www.w3.org/2000/svg" xmlns:xlink="http://www.w3.org/1999/xlink" xml:space="preserve" overflow="hidden"><g transform="translate(-1255 -873)"><path d="M1269 1076C1277.41 1057.45 1274.25 951.941 1287.18 920.669 1300.11 889.396 1327.64 890.275 1346.57 888.365 1365.49 886.454 1389.46 882.634 1400.74 909.206 1412.03 935.778 1409.08 1020.01 1414.29 1047.8 1419.5 1075.59 1414.49 1072.82 1432 1075.93" stroke="#50164A" stroke-width="27.5" stroke-linecap="round" stroke-linejoin="round" stroke-miterlimit="10" fill="none" fill-rule="evenodd"/><path d="M1363.01 1033C1346.08 1038.51 1330.38 1044.75 1320.95 1055.86 1311.52 1066.96 1294.93 1090.69 1306.44 1099.62 1317.94 1108.55 1361.78 1112.64 1389.99 1109.43 1418.56 1112.51 1455.44 1094.98 1475.71 1118.65 1495.99 1142.33 1453.76 1161.64 1420.14 1170.21 1386.52 1178.78 1300.03 1179.79 1274 1170.07" stroke="#50164A" stroke-width="13.75" stroke-linecap="round" stroke-miterlimit="8" fill="none" fill-rule="evenodd"/></g></svg>